<svg id="Layer_1" data-name="Layer 1" xmlns="http://www.w3.org/2000/svg" viewBox="0 0 278.22 278.22"><defs><style>.cls-1,.cls-8{fill:#b69eb0;}.cls-1,.cls-2,.cls-3{stroke:#1e1e1c;}.cls-1,.cls-2,.cls-3,.cls-6,.cls-7,.cls-8{stroke-linecap:round;stroke-linejoin:round;}.cls-1,.cls-2,.cls-6,.cls-7,.cls-8{stroke-width:1.38px;}.cls-2{fill:#ffcf54;}.cls-3,.cls-4{fill:#fff;}.cls-3{stroke-width:1.1px;}.cls-5{fill:#fa857a;}.cls-6{fill:#1d1d1b;}.cls-6,.cls-7,.cls-8{stroke:#1d1d1b;}.cls-7{fill:#030909;}</style></defs><rect class="cls-1" x="106.53" y="37.26" width="65.16" height="30.3" rx="14.4" transform="translate(86.7 191.52) rotate(-90)"/><rect class="cls-2" x="61.75" y="54.88" width="154.72" height="193.96"/><circle class="cls-3" cx="139.11" cy="35.31" r="10.25"/><rect class="cls-4" x="71.78" y="63.88" width="134.66" height="171.84"/><rect class="cls-1" x="90.63" y="50.41" width="96.97" height="22.76" rx="3.91"/><rect class="cls-5" x="89.63" y="96.6" width="98.96" height="10.16"/><rect class="cls-5" x="89.63" y="147.71" width="98.96" height="10.16"/><rect class="cls-5" x="89.63" y="173.27" width="10.16" height="10.16"/><rect class="cls-5" x="178.43" y="173.27" width="10.16" height="10.16"/><rect class="cls-5" x="134.03" y="173.27" width="10.16" height="10.16"/><rect class="cls-5" x="89.63" y="198.82" width="98.96" height="10.16"/><rect class="cls-5" x="89.63" y="122.15" width="44.36" height="10.16"/><rect class="cls-5" x="144.23" y="122.15" width="44.36" height="10.16"/><polygon class="cls-6" points="100.5 199.28 102.68 202.89 94.24 205.51 100.5 199.28"/><polygon class="cls-7" points="116.69 183.12 124.53 196.09 102.68 202.89 100.5 199.28 116.69 183.12"/><rect class="cls-8" x="179.26" y="72.27" width="15.16" height="154.71" transform="translate(155.28 386.91) rotate(-121.11)"/><line class="cls-6" x1="96.5" y1="204.15" x2="92.73" y2="206.43"/></svg>