<svg id="Layer_1" data-name="Layer 1" xmlns="http://www.w3.org/2000/svg" viewBox="0 0 278.22 278.22"><defs><style>.cls-1,.cls-3,.cls-4,.cls-9{fill:none;}.cls-1,.cls-4,.cls-5,.cls-9{stroke:#1d1d1b;}.cls-1,.cls-5,.cls-9{stroke-miterlimit:10;}.cls-1,.cls-2,.cls-3,.cls-4,.cls-5,.cls-9{stroke-width:1.38px;}.cls-2{fill:#ffcf54;}.cls-2,.cls-3{stroke:#030909;}.cls-2,.cls-3,.cls-4{stroke-linecap:round;stroke-linejoin:round;}.cls-5{fill:#b69eb0;}.cls-6{fill:#1d1d1b;}.cls-7{fill:#fff;}.cls-8{fill:#fa857a;}.cls-9{fill-rule:evenodd;}</style></defs><path class="cls-1" d="M137.66,29.77h0A27.84,27.84,0,0,1,165.5,57.61v47.58a0,0,0,0,1,0,0H109.82a0,0,0,0,1,0,0V57.61a27.84,27.84,0,0,1,27.84-27.84Z"/><polygon class="cls-2" points="213.72 247.54 64.5 247.54 79.18 80.82 79.35 78.89 198.87 78.89 199.04 80.82 213.72 247.54"/><line class="cls-3" x1="165.5" y1="74.38" x2="165.5" y2="105.19"/><line class="cls-4" x1="109.82" y1="74.38" x2="109.82" y2="119.86"/><path class="cls-5" d="M118.7,126.44l-10.21,31.72a1.77,1.77,0,0,1-2.23,1.15L91,154.39a1.77,1.77,0,0,1-1.14-2.23l10.23-31.8a1.74,1.74,0,0,1,1.17-1.16l8.56-2.61a1.77,1.77,0,0,1,1.85.53l6.7,7.6A1.79,1.79,0,0,1,118.7,126.44Z"/><circle class="cls-6" cx="165.5" cy="104.48" r="1.93"/><circle class="cls-6" cx="109.82" cy="121.45" r="1.93"/><polygon class="cls-7" points="244.26 248.41 244.26 248.46 127.96 248.46 127.96 248.41 129.25 236.08 130.54 223.71 131.82 211.39 133.11 199.06 134.39 186.73 135.67 174.41 136.96 162.08 138.24 149.75 139.4 138.7 139.52 137.43 232.68 137.43 232.81 138.7 233.96 149.75 235.24 162.08 236.53 174.41 237.81 186.73 239.1 199.06 240.39 211.39 241.67 223.71 242.97 236.08 244.26 248.41"/><polygon class="cls-8" points="233.96 149.75 138.24 149.75 139.4 138.7 139.52 137.43 232.68 137.43 232.81 138.7 233.96 149.75"/><polygon class="cls-8" points="236.53 174.41 135.67 174.41 136.96 162.08 235.24 162.08 236.53 174.41"/><polygon class="cls-8" points="239.1 199.06 133.11 199.06 134.39 186.73 237.81 186.73 239.1 199.06"/><polygon class="cls-8" points="241.67 223.71 130.54 223.71 131.82 211.39 240.39 211.39 241.67 223.71"/><polygon class="cls-8" points="244.26 248.41 127.96 248.41 129.25 236.08 242.97 236.08 244.26 248.41"/><polygon class="cls-3" points="244.26 248.41 244.26 248.46 127.96 248.46 127.96 248.41 129.25 236.08 130.54 223.71 131.82 211.39 133.11 199.06 134.39 186.73 135.67 174.41 136.96 162.08 138.24 149.75 139.4 138.7 139.52 137.43 232.68 137.43 232.81 138.7 233.96 149.75 235.24 162.08 236.53 174.41 237.81 186.73 239.1 199.06 240.39 211.39 241.67 223.71 242.97 236.08 244.26 248.41"/><path class="cls-9" d="M209.43,155.6V174c0,11.14-9.9,20.17-22.11,20.17h-2.44c-12.21,0-22.1-9-22.1-20.17V155.6"/><circle class="cls-6" cx="162.78" cy="156.23" r="1.93"/><circle class="cls-6" cx="209.43" cy="156.23" r="1.93"/></svg>