<svg id="Layer_1" data-name="Layer 1" xmlns="http://www.w3.org/2000/svg" viewBox="0 0 278.22 278.22"><defs><style>.cls-1{fill:#ffcf54;}.cls-2{fill:#1d1d1b;}.cls-3{fill:#030909;}</style></defs><path class="cls-1" d="M139.11,59.72a79.39,79.39,0,1,1-79.39,79.39,79.38,79.38,0,0,1,79.39-79.39m0-15a94.39,94.39,0,1,0,94.39,94.39,94.49,94.49,0,0,0-94.39-94.39Z"/><circle class="cls-1" cx="139.11" cy="139.11" r="80.09" transform="translate(-20.49 254.14) rotate(-80.78)"/><path class="cls-2" d="M139.11,59.72a79.39,79.39,0,1,1-79.39,79.39,79.38,79.38,0,0,1,79.39-79.39m0-1.39a80.78,80.78,0,1,0,80.78,80.78,80.87,80.87,0,0,0-80.78-80.78Z"/><path class="cls-3" d="M139.11,31.2a107.9,107.9,0,0,1,76.3,184.21A107.91,107.91,0,1,1,139.11,31.2m0-1.38A109.29,109.29,0,1,0,248.4,139.11,109.3,109.3,0,0,0,139.11,29.82Z"/><path class="cls-3" d="M158.27,136.54q12.24,1.76,18.57,7.75t6.33,15.81q0,11.82-8.94,18.36T149.06,185q-4.17,0-13.05-.43t-13.6-.42q-1.51,0-5.88.12c-2.9.08-5.29.12-7.15.12q-4.91,0-7.42-1.51a4.87,4.87,0,0,1-2.51-4.42q0-3.21,3.63-5.06a18.27,18.27,0,0,0,4.06-2.4c.61-.84,1.07-4.35,1.4-10.51s.48-14.44.48-24.86q0-12.36-.48-19.81c-.33-5-.79-7.88-1.4-8.73q-.42-.6-4.06-2.42t-3.63-5A4.85,4.85,0,0,1,102,95.22c1.7-1,4.2-1.51,7.52-1.51q3.27,0,7.78.12c3,.08,4.92.12,5.72.12q4.72,0,12.61-.36t11.08-.37q14.66,0,22.54,5.67t7.87,16.26a18.5,18.5,0,0,1-4.75,13q-4.76,5.17-14.09,7.48a2.34,2.34,0,0,0-.42.24.17.17,0,0,0-.06.12.35.35,0,0,0,.06.24S158,136.37,158.27,136.54Zm-27.44-6q1.51.18,3.24.27t3.48.09q9.94,0,14.39-3t4.45-9.66q0-6.72-4.21-10.06t-12.81-3.33a14.32,14.32,0,0,0-5.24.7A4.33,4.33,0,0,0,131.8,108a24.44,24.44,0,0,0-.73,5.49q-.24,4.08-.24,14Zm0,13.69v11.51q0,6.66.21,9.57a18.43,18.43,0,0,0,.64,4.18,5.62,5.62,0,0,0,3.3,3.06,20.42,20.42,0,0,0,7.12.94q9.27,0,14.08-3.73T161,158.83q0-8.12-5.49-11.57t-19-3.46c-1.09,0-2.1,0-3,.1A22.22,22.22,0,0,0,130.83,144.23Z"/></svg>