<svg id="Layer_1" data-name="Layer 1" xmlns="http://www.w3.org/2000/svg" viewBox="0 0 278.22 278.22"><defs><style>.cls-1{fill:#ffcf54;}.cls-2,.cls-3,.cls-4{fill:#fff;}.cls-2,.cls-3,.cls-4,.cls-5{stroke:#1e1e1c;stroke-linecap:round;stroke-linejoin:round;}.cls-2,.cls-5{stroke-width:1.38px;}.cls-3{stroke-width:1.36px;}.cls-4{stroke-width:1.11px;}.cls-5{fill:none;}.cls-6{fill:#1e1e1c;}</style></defs><circle class="cls-1" cx="139.11" cy="139.11" r="95.21"/><line class="cls-2" x1="168.78" y1="172.3" x2="141.83" y2="144.54"/><line class="cls-3" x1="129.11" y1="65.28" x2="137.72" y2="133.69"/><circle class="cls-4" cx="139.11" cy="139.11" r="5.43"/><path class="cls-5" d="M239,183.55A109.31,109.31,0,1,0,139.1,248.4a110.54,110.54,0,0,0,14.64-1"/><path class="cls-6" d="M248.82,177.49a.69.69,0,0,0-1-.18l-8.77,5.94-1.67-10.46A.69.69,0,1,0,236,173l1.85,11.53A.68.68,0,0,0,239,185l9.67-6.55a.7.7,0,0,0,.25-.29A.73.73,0,0,0,248.82,177.49Z"/></svg>