<svg id="Layer_1" data-name="Layer 1" xmlns="http://www.w3.org/2000/svg" viewBox="0 0 278.22 278.22"><defs><style>.cls-1{fill:#ff9e61;}.cls-2,.cls-5{fill:#b69eb0;}.cls-2{stroke:#030909;}.cls-2,.cls-3,.cls-4,.cls-5{stroke-linecap:round;stroke-linejoin:round;stroke-width:1.38px;}.cls-3{fill:#59c4cf;}.cls-3,.cls-4,.cls-5{stroke:#1e1e1c;}.cls-4{fill:none;}</style></defs><rect class="cls-1" x="76.7" y="112.79" width="119.87" height="135.66"/><path class="cls-2" d="M170,41.24H103.32C140.78,16.32,164.38,39.5,170,41.24Z"/><path class="cls-3" d="M196.56,48.61v7l-.08,10.17H76.7l.11-10V48.55C79.39,46.9,86,45.09,92,43.66s11.3-2.42,11.3-2.42H170C177,42.25,196.56,48.61,196.56,48.61Z"/><path class="cls-4" d="M196.48,65.82V85.66c4.32-.39,26.35-1.71,38.37,9.92,13.39,12.93,11.91,42.36,11.91,42.36S247.5,172.68,230,189c-15.37,14.31-30,15.05-33.47,15.05v44.36H76.7V99.57c-4.93-13.06-25.91-15.1-20.82-22C60.74,71,76.7,65.82,76.7,65.82"/><path class="cls-4" d="M229.46,141.93c-2.2,38.23-27.84,44.28-33,43.51V105c.6-1,4.07-1.4,5.72-1.4C205.06,103.62,231.93,99.33,229.46,141.93Z"/><rect class="cls-5" x="90.23" y="65.82" width="91.21" height="25.41"/><line class="cls-4" x1="196.51" y1="65.82" x2="196.48" y2="65.82"/></svg>