<svg id="Layer_1" data-name="Layer 1" xmlns="http://www.w3.org/2000/svg" viewBox="0 0 278.22 278.22"><defs><style>.cls-1{fill:#b69eb0;}.cls-1,.cls-3{stroke:#030909;stroke-miterlimit:10;stroke-width:1.38px;}.cls-2{fill:#030909;}.cls-3{fill:none;}</style></defs><path class="cls-1" d="M232.57,82.49,217,62.48a3,3,0,0,0-4.18-.53L199.14,72.6A88.84,88.84,0,0,0,165.6,53.53l2.15-17.22A3,3,0,0,0,165.16,33L140,29.83a3,3,0,0,0-3.33,2.6l-2.15,17.21A88.89,88.89,0,0,0,97.32,59.86L86.67,46.17a3,3,0,0,0-4.18-.52l-20,15.56A3,3,0,0,0,62,65.39L72.6,79.08a88.84,88.84,0,0,0-19.07,33.54l-17.21-2.15A3,3,0,0,0,33,113.06l-3.14,25.15a3,3,0,0,0,2.59,3.33l17.21,2.15A89.18,89.18,0,0,0,59.86,180.9L46.17,191.55a3,3,0,0,0-.51,4.18l15.55,20a3,3,0,0,0,4.18.53l13.69-10.65a89.17,89.17,0,0,0,33.55,19.07l-2.16,17.22a3,3,0,0,0,2.59,3.32l25.15,3.16a3,3,0,0,0,3.33-2.6l2.16-17.21a89.27,89.27,0,0,0,37.21-10.22l10.64,13.69a3,3,0,0,0,4.18.52l20-15.56a3,3,0,0,0,.53-4.18l-10.64-13.69A89.19,89.19,0,0,0,224.7,165.6l17.21,2.15a3,3,0,0,0,3.33-2.59L248.38,140a3,3,0,0,0-2.58-3.32l-17.22-2.15a88.92,88.92,0,0,0-10.21-37.22l13.68-10.64A3,3,0,0,0,232.57,82.49Zm-47.69,21a58,58,0,0,1,7.69,58.07,56.71,56.71,0,0,1-6.82,12A58.23,58.23,0,0,1,161,192.8a57.24,57.24,0,0,1-13.31,3.66,58.16,58.16,0,0,1-31.07-3.89,57.47,57.47,0,0,1-12-6.82A58.18,58.18,0,0,1,85.42,161a57.54,57.54,0,0,1-3.66-13.32,58.28,58.28,0,0,1,3.89-31.07,58.06,58.06,0,0,1,31.54-31.22,56.83,56.83,0,0,1,13.32-3.66,58.17,58.17,0,0,1,31.07,3.89,56.71,56.71,0,0,1,12,6.82A57.82,57.82,0,0,1,184.88,103.51Z"/><path class="cls-2" d="M144.5,134.92a6.82,6.82,0,1,0-1.2,9.57A6.82,6.82,0,0,0,144.5,134.92Z"/><circle class="cls-3" cx="139.11" cy="139.11" r="38.38"/></svg>